<svg xmlns="http://www.w3.org/2000/svg" viewBox="0 0 34.05 29.47"><defs><style>.cls-1{fill:none;stroke:#fff;stroke-linecap:round;stroke-linejoin:round;stroke-width:2px;}</style></defs><title>about</title><g id="Layer_2" data-name="Layer 2"><g id="Layer_1-2" data-name="Layer 1"><line class="cls-1" x1="4.43" y1="1" x2="29.63" y2="1"/><path class="cls-1" d="M26.72,4.21h4.33a2,2,0,0,1,2,2V26.47a2,2,0,0,1-2,2H3a2,2,0,0,1-2-2V6.21a2,2,0,0,1,2-2H26.72Z"/><line class="cls-1" x1="8.44" y1="4.21" x2="25.62" y2="4.21"/><path class="cls-1" d="M16.63,20.7l-3.38-2.07a3.35,3.35,0,0,0,1.87-2.87l.1-2.64A3.15,3.15,0,0,0,12.06,10h-.7a3.15,3.15,0,0,0-3.17,3.12l.1,2.64a3.35,3.35,0,0,0,1.86,2.87L6.78,20.7a1.67,1.67,0,0,0-1,1.51v1.34H17.59V22.21A1.67,1.67,0,0,0,16.63,20.7Z"/><line class="cls-1" x1="22.12" y1="12.33" x2="28.3" y2="12.33"/><line class="cls-1" x1="22.12" y1="16.77" x2="28.3" y2="16.77"/><line class="cls-1" x1="22.12" y1="21.22" x2="28.3" y2="21.22"/></g></g></svg>