<svg xmlns="http://www.w3.org/2000/svg" viewBox="0 0 34 34"><defs><style>.cls-1{fill:none;stroke:#fff;stroke-linecap:round;stroke-linejoin:round;stroke-width:2px;}</style></defs><title>artists</title><g id="Layer_2" data-name="Layer 2"><g id="Layer_1-2" data-name="Layer 1"><circle class="cls-1" cx="17" cy="17" r="16"/><path class="cls-1" d="M21.12,24.4c0-1.7,1-1.14,1.54-4.24.24-1.29,1.39,0,1.62-3,0-1.17-.63-1.46-.63-1.46.23-1.21.76-5.65-.79-7.45a4,4,0,0,0-3-1.25l-.11,0c-.43-.74-3.06-1.7-6.53-.29s-3.55,4.62-3.12,7.23c.14,1,.29,1.8.29,1.8s-.63.29-.63,1.46c.22,2.94,1.38,1.67,1.62,3,.57,3.1,1.54,2.55,1.54,4.24,0,2.78-1,4.1-5.14,5.64a15.93,15.93,0,0,0,18.52,0C22.12,28.5,21.12,27.18,21.12,24.4Z"/></g></g></svg>