<svg xmlns="http://www.w3.org/2000/svg" viewBox="0 0 38.37 33.22"><defs><style>.cls-1{fill:none;stroke:#fff;stroke-linecap:round;stroke-linejoin:round;stroke-width:2px;}</style></defs><title>video</title><g id="Layer_2" data-name="Layer 2"><g id="Layer_1-2" data-name="Layer 1"><rect class="cls-1" x="1" y="12.27" width="25" height="19.95" rx="2.37" ry="2.37"/><polygon class="cls-1" points="37.37 13.98 37.37 30.51 26 22.24 37.37 13.98"/><path class="cls-1" d="M12.13,5.35a5.65,5.65,0,0,1-6.78,6.78,5.59,5.59,0,0,1-4.2-4.2A5.65,5.65,0,0,1,7.93,1.14,5.59,5.59,0,0,1,12.13,5.35Z"/><path class="cls-1" d="M25.85,5.35a5.65,5.65,0,0,1-6.78,6.78,5.59,5.59,0,0,1-4.2-4.2,5.65,5.65,0,0,1,6.78-6.78A5.59,5.59,0,0,1,25.85,5.35Z"/></g></g></svg>