<?xml version="1.0" encoding="iso-8859-1"?>
<!-- Generator: Adobe Illustrator 16.0.0, SVG Export Plug-In . SVG Version: 6.00 Build 0)  -->
<!DOCTYPE svg PUBLIC "-//W3C//DTD SVG 1.1//EN" "http://www.w3.org/Graphics/SVG/1.1/DTD/svg11.dtd">
<svg xmlns="http://www.w3.org/2000/svg" xmlns:xlink="http://www.w3.org/1999/xlink" version="1.1" id="Capa_1" x="0px" y="0px" width="512px" height="512px" viewBox="0 0 612 612" style="enable-background:new 0 0 612 612;" xml:space="preserve">
<g>
	<g>
	</g>
	<g>
	</g>
	<g>
	</g>
	<g>
	</g>
	<g>
	</g>
	<g>
	</g>
	<g>
	</g>
	<g>
	</g>
	<g>
	</g>
	<g>
	</g>
	<g>
	</g>
	<g>
	</g>
	<g>
	</g>
	<g>
	</g>
	<g>
	</g>
</g>
<g>
	<path d="M522.121,261.746c-1.675,0-2.831,0.049-4.506,0.147C504.733,202.96,450.18,160.21,383.322,160.21   c-15.398,0-60.322,0-60.322,31.504V420.58c0,14.576,11.879,26.63,24.947,26.63h154.935c0.215,0,0.499-0.164,0.715-0.174   l18.133-0.895c48.862,0,90.271-42.232,90.271-92.183C612,303.137,571.826,261.746,522.121,261.746z M520.945,416.544l-18.387,0.666   H348.73c-0.078,0,4.27,0.196,4.27,0.146V193.967c0-1.391,9.028-4.35,30.628-4.34c57.181,0,101.55,38.783,106.095,90.202   c0.373,4.271,2.554,8.16,6.031,10.658s7.845,3.36,11.998,2.341c4.585-1.107,9.237-1.666,13.851-1.666   c33.503,0,60.751,28.085,60.751,62.695C582.354,387.871,554.526,416.524,520.945,416.544z" fill="#FFFFFF"/>
	<path d="M289,177.314c-8.111,0-15,6.583-15,14.704v245.068c0,8.121,6.889,14.704,15,14.704s15-6.583,15-14.694V192.018   C304,183.897,297.111,177.314,289,177.314z" fill="#FFFFFF"/>
	<path d="M249.5,206.712c-8.111,0-14.5,6.583-14.5,14.704V427.28c0,8.121,6.389,14.704,14.5,14.704s14.5-6.583,14.5-14.704V221.416   C264,213.295,257.611,206.712,249.5,206.712z" fill="#FFFFFF"/>
	<path d="M210.5,226.314c-8.111,0-14.5,6.583-14.5,14.713v176.457c0,8.131,6.389,14.704,14.5,14.704s14.5-6.583,14.5-14.714V241.027   C225,232.897,218.611,226.314,210.5,226.314z" fill="#FFFFFF"/>
	<path d="M171.5,236.12c-8.111,0-14.5,6.583-14.5,14.704v186.262c0,8.121,6.389,14.704,14.5,14.704s14.5-6.583,14.5-14.704V250.824   C186,242.703,179.611,236.12,171.5,236.12z" fill="#FFFFFF"/>
	<path d="M132.5,206.712c-8.111,0-14.5,6.583-14.5,14.704V427.28c0,8.121,6.389,14.704,14.5,14.704s14.5-6.583,14.5-14.704V221.416   C147,213.295,140.611,206.712,132.5,206.712z" fill="#FFFFFF"/>
	<path d="M93,236.12c-8.111,0-15,6.583-15,14.704v186.262c0,8.121,6.889,14.704,15,14.704s15-6.583,15-14.704V250.824   C108,242.703,101.111,236.12,93,236.12z" fill="#FFFFFF"/>
	<path d="M54,245.926c-8.111,0-15,6.583-15,14.704V427.28c0,8.121,6.889,14.704,15,14.704s15-6.583,15-14.704V260.629   C69,252.508,62.111,245.926,54,245.926z" fill="#FFFFFF"/>
	<path d="M14.5,294.945c-8.111,0-14.5,6.583-14.5,14.704v88.232c0,8.121,6.389,14.704,14.5,14.704S29,405.993,29,397.872V309.64   C29,301.518,22.611,294.945,14.5,294.945z" fill="#FFFFFF"/>
</g>
<g>
</g>
<g>
</g>
<g>
</g>
<g>
</g>
<g>
</g>
<g>
</g>
<g>
</g>
<g>
</g>
<g>
</g>
<g>
</g>
<g>
</g>
<g>
</g>
<g>
</g>
<g>
</g>
<g>
</g>
</svg>
